<svg width="191" height="79" viewBox="0 0 191 79" fill="none" xmlns="http://www.w3.org/2000/svg">
<g clip-path="url(#clip0)">
<path d="M38.656 40.032C38.656 42.528 37.856 44.72 36.256 46.608C34.688 48.464 32.736 49.392 30.4 49.392C25.696 49.392 22.24 47.152 20.032 42.672C17.632 41.104 16.432 39.776 16.432 38.688C16.432 38.144 16.768 37.696 17.44 37.344C18.752 36.64 19.952 36.288 21.04 36.288C23.408 36.288 24.992 37.696 25.792 40.512C26.176 41.28 26.576 42.048 26.992 42.816C27.408 43.584 27.968 43.968 28.672 43.968C30.56 43.968 31.504 42.624 31.504 39.936C31.504 37.536 31.072 35.92 30.208 35.088C29.824 34.736 28.288 34 25.6 32.88C23.456 31.984 21.728 30.448 20.416 28.272C19.232 26.288 18.624 24.224 18.592 22.08C18.56 18.624 19.424 15.552 21.184 12.864C23.04 9.984 25.344 8.544 28.096 8.544C31.296 8.544 33.632 9.824 35.104 12.384C36.064 13.984 36.608 15.968 36.736 18.336C37.088 19.552 37.264 20.656 37.264 21.648C37.264 22.288 37.184 22.816 37.024 23.232C36.544 24.416 35.6 25.008 34.192 25.008C33.136 25.008 32.176 24.624 31.312 23.856C30.352 23.024 29.76 21.856 29.536 20.352C29.44 19.84 29.536 19.328 29.824 18.816C30.144 18.304 30.304 18.016 30.304 17.952C30.304 17.888 30.272 17.824 30.208 17.76C30.24 17.6 30.256 17.44 30.256 17.28C30.256 16.32 29.696 15.872 28.576 15.936C27.488 16 26.64 16.72 26.032 18.096C25.488 19.28 25.248 20.64 25.312 22.176C25.408 24.896 27.2 27.072 30.688 28.704C33.44 29.984 35.344 31.248 36.4 32.496C37.904 34.288 38.656 36.8 38.656 40.032Z" fill="#693C72"/>
<path d="M46.2129 19.2C46.2897 19.2768 46.3281 19.4048 46.3281 19.584C46.3281 19.8144 46.2513 20.2112 46.0977 20.7744C45.9185 21.4656 45.8033 21.9392 45.7521 22.1952C45.7009 22.4512 45.7265 23.0144 45.8289 23.8848C45.8289 24.4224 45.6625 24.7808 45.3297 24.96C45.0225 25.1136 44.6257 25.1904 44.1393 25.1904C43.4481 25.1904 42.7441 25.0496 42.0273 24.768C41.1569 24.4096 40.7217 23.936 40.7217 23.3472C40.7217 23.168 40.7985 22.9248 40.9521 22.6176C41.1057 22.2848 41.1953 22.016 41.2209 21.8112C41.2721 21.6064 41.2721 21.0944 41.2209 20.2752C41.1697 19.6352 41.2977 19.2 41.6049 18.9696C42.0145 18.6624 42.7441 18.5088 43.7937 18.5088C44.9457 18.5088 45.7521 18.7392 46.2129 19.2ZM46.7121 28.5696C46.7121 28.928 46.5073 29.4912 46.0977 30.2592C45.7137 31.0016 45.5217 31.616 45.5217 32.1024V43.392C45.5217 43.904 45.6625 44.6336 45.9441 45.5808C46.2257 46.5024 46.3665 47.1424 46.3665 47.5008C46.3665 48.0128 46.1617 48.3968 45.7521 48.6528C45.1121 49.0624 44.4209 49.2672 43.6785 49.2672C42.7057 49.2672 42.0145 48.9344 41.6049 48.2688C41.0673 47.4496 40.7985 45.0048 40.7985 40.9344C40.7985 39.9616 40.8113 38.4512 40.8369 36.4032C40.8881 34.3296 40.9137 32.8192 40.9137 31.872C40.9137 31.5136 40.8753 31.0528 40.7985 30.4896C40.7217 29.9008 40.6833 29.4784 40.6833 29.2224C40.6833 28.3776 40.9905 27.648 41.6049 27.0336C41.8609 26.7776 42.3345 26.6496 43.0257 26.6496C43.7169 26.6496 44.4081 26.7648 45.0993 26.9952C45.7905 27.2 46.2257 27.4432 46.4049 27.7248C46.6097 28.0064 46.7121 28.288 46.7121 28.5696Z" fill="#C15050"/>
<path d="M73.482 48C73.1596 48.9176 72.428 49.3764 71.2872 49.3764C69.8488 49.3764 68.7824 48.8804 68.088 47.8884C67.716 47.3428 67.53 45.4704 67.53 42.2712C67.53 41.8 67.53 41.1428 67.53 40.2996C67.5548 39.4316 67.5672 38.824 67.5672 38.4768C67.5672 36.7408 67.4804 35.848 67.3068 35.7984C66.9348 35.6496 65.67 39.1216 63.5124 46.2144C63.5124 46.2392 63.4628 46.8344 63.3636 48C63.314 48.7192 63.066 49.2028 62.6196 49.4508C62.2972 49.6244 61.9376 49.7112 61.5408 49.7112C60.8216 49.7112 60.1272 49.4756 59.4576 49.0044C58.788 48.5332 58.3664 47.9752 58.1928 47.3304C57.9448 46.4128 57.8332 44.6024 57.858 41.8992C57.9076 37.956 57.9324 36.0588 57.9324 36.2076C57.9076 35.166 57.8332 34.6328 57.7092 34.608C57.1388 35.5504 56.6428 36.4556 56.2212 37.3236C55.2044 39.4068 54.6216 41.1428 54.4728 42.5316C54.3488 42.8292 54.3364 43.412 54.4356 44.28C54.5348 45.024 54.4232 45.5324 54.1008 45.8052C53.7784 46.078 53.3444 46.2144 52.7988 46.2144C52.2036 46.2144 51.596 46.0532 50.976 45.7308C50.3808 45.3836 49.9468 44.9992 49.674 44.5776C49.2772 43.9576 49.054 42.1472 49.0044 39.1464C49.0044 36.22 49.0044 33.2936 49.0044 30.3672C48.9796 30.1192 48.8804 29.772 48.7068 29.3256C48.5332 28.8792 48.4464 28.5444 48.4464 28.3212C48.4464 28.098 48.5084 27.8872 48.6324 27.6888C48.9548 27.1928 49.7732 26.9448 51.0876 26.9448C52.6996 26.9448 53.6668 27.3416 53.9892 28.1352C54.0636 28.3088 54.1008 28.4824 54.1008 28.656C54.1008 28.8792 53.9768 29.2016 53.7288 29.6232C53.5056 30.0448 53.394 30.392 53.394 30.6648V34.9056C54.138 33.3432 55.1176 31.3592 56.3328 28.9536C56.4816 28.6312 56.618 28.3088 56.742 27.9864C56.8908 27.664 57.1016 27.3788 57.3744 27.1308C57.6472 26.8828 58.106 26.7588 58.7508 26.7588C59.7428 26.7588 60.7348 26.982 61.7268 27.4284C62.7436 27.8748 63.2644 28.408 63.2892 29.028C63.314 29.6728 63.2148 30.1688 62.9916 30.516C62.7932 30.8384 62.694 31.1112 62.694 31.3344L62.6196 39.3696C63.0164 38.4768 63.7356 36.3688 64.7772 33.0456C65.5956 30.516 66.2156 29.1024 66.6372 28.8048C67.1828 28.408 67.9888 28.2096 69.0552 28.2096C71.0392 28.2096 72.0684 28.78 72.1428 29.9208C72.118 32.9464 72.118 38.0056 72.1428 45.0984C72.1428 45.3712 72.3908 45.706 72.8868 46.1028C73.3828 46.4748 73.6308 46.8716 73.6308 47.2932C73.6308 47.4916 73.5812 47.7272 73.482 48Z" fill="#D97642"/>
<path d="M80.6742 19.2C80.751 19.2768 80.7894 19.4048 80.7894 19.584C80.7894 19.8144 80.7126 20.2112 80.559 20.7744C80.3798 21.4656 80.2646 21.9392 80.2134 22.1952C80.1622 22.4512 80.1878 23.0144 80.2902 23.8848C80.2902 24.4224 80.1238 24.7808 79.791 24.96C79.4838 25.1136 79.087 25.1904 78.6006 25.1904C77.9094 25.1904 77.2054 25.0496 76.4886 24.768C75.6182 24.4096 75.183 23.936 75.183 23.3472C75.183 23.168 75.2598 22.9248 75.4134 22.6176C75.567 22.2848 75.6566 22.016 75.6822 21.8112C75.7334 21.6064 75.7334 21.0944 75.6822 20.2752C75.631 19.6352 75.759 19.2 76.0662 18.9696C76.4758 18.6624 77.2054 18.5088 78.255 18.5088C79.407 18.5088 80.2134 18.7392 80.6742 19.2ZM81.1734 28.5696C81.1734 28.928 80.9686 29.4912 80.559 30.2592C80.175 31.0016 79.983 31.616 79.983 32.1024V43.392C79.983 43.904 80.1238 44.6336 80.4054 45.5808C80.687 46.5024 80.8278 47.1424 80.8278 47.5008C80.8278 48.0128 80.623 48.3968 80.2134 48.6528C79.5734 49.0624 78.8822 49.2672 78.1398 49.2672C77.167 49.2672 76.4758 48.9344 76.0662 48.2688C75.5286 47.4496 75.2598 45.0048 75.2598 40.9344C75.2598 39.9616 75.2726 38.4512 75.2982 36.4032C75.3494 34.3296 75.375 32.8192 75.375 31.872C75.375 31.5136 75.3366 31.0528 75.2598 30.4896C75.183 29.9008 75.1446 29.4784 75.1446 29.2224C75.1446 28.3776 75.4518 27.648 76.0662 27.0336C76.3222 26.7776 76.7958 26.6496 77.487 26.6496C78.1782 26.6496 78.8694 26.7648 79.5606 26.9952C80.2518 27.2 80.687 27.4432 80.8662 27.7248C81.071 28.0064 81.1734 28.288 81.1734 28.5696Z" fill="#D49D42"/>
<path d="M91.2849 48.276C90.5489 49.6744 89.1873 50.3736 87.2001 50.3736C85.3601 50.3736 84.0721 49.748 83.3361 48.4968C83.1153 48.1288 83.0049 47.724 83.0049 47.2824C83.0049 46.9144 83.1337 46.3072 83.3913 45.4608C83.6489 44.6144 83.7777 43.9152 83.7777 43.3632L83.5569 7.704C83.5569 5.7536 83.5569 4.76 83.5569 4.7232C83.6673 4.2448 84.1825 3.8584 85.1025 3.564C86.0225 3.2328 86.9977 3.0672 88.0281 3.0672C89.5369 3.0672 90.4937 3.3432 90.8985 3.8952C91.3033 4.4472 91.5057 5.0176 91.5057 5.6064C91.5057 6.0112 91.3585 6.692 91.0641 7.6488C90.7697 8.5688 90.6225 9.3232 90.6225 9.912V43.032C90.6225 43.584 90.7697 44.32 91.0641 45.24C91.3953 46.1232 91.5609 46.7672 91.5609 47.172C91.5609 47.5768 91.4689 47.9448 91.2849 48.276ZM107.383 25.0896C109.366 27.1024 110.358 30.4916 110.358 35.2572C110.358 38.9572 109.662 42.1096 108.271 44.7144C106.702 47.6448 104.541 49.11 101.788 49.11C99.0653 49.11 96.9637 47.7928 95.4837 45.1584C94.1813 42.8496 93.5301 39.9192 93.5301 36.3672C93.5301 33.2296 94.0333 30.4176 95.0397 27.9312C96.1053 25.2672 97.4669 23.6984 99.1245 23.2248C99.9829 22.988 100.871 22.8696 101.788 22.8696C104.068 22.8696 105.932 23.6096 107.383 25.0896ZM102.321 27.2208C101.344 27.132 100.501 28.0496 99.7905 29.9736C99.1689 31.72 98.8581 33.5552 98.8581 35.4792C98.8581 38.2616 98.9765 40.23 99.2133 41.3844C99.6277 43.4564 100.486 44.596 101.788 44.8032C102.617 44.9216 103.387 43.782 104.097 41.3844C104.778 39.0756 105.118 36.604 105.118 33.9696C105.118 29.648 104.186 27.3984 102.321 27.2208Z" fill="#54BFCF"/>
<path d="M0 57.0139C241.28 57.0139 49.9401 64.7582 51.4552 49.662" stroke="url(#paint0_linear)" stroke-width="3" stroke-linecap="round" stroke-linejoin="round"/>
</g>
<defs>
<linearGradient id="paint0_linear" x1="0" y1="49.662" x2="0" y2="59" gradientUnits="userSpaceOnUse">
<stop stop-color="#3C37E3"/>
<stop offset="1" stop-color="#A09DF1"/>
</linearGradient>
<clipPath id="clip0">
<rect width="191" height="79" fill="white"/>
</clipPath>
</defs>
</svg>
