<svg width="80" height="40" viewBox="0 0 80 40" fill="none" xmlns="http://www.w3.org/2000/svg">
<path d="M18.88 31.36C18.88 33.44 18.2133 35.2667 16.88 36.84C15.5733 38.3867 13.9467 39.16 12 39.16C8.08 39.16 5.2 37.2933 3.36 33.56C1.36 32.2533 0.36 31.1467 0.36 30.24C0.36 29.7867 0.64 29.4133 1.2 29.12C2.29333 28.5333 3.29333 28.24 4.2 28.24C6.17333 28.24 7.49333 29.4133 8.16 31.76C8.48 32.4 8.81333 33.04 9.16 33.68C9.50667 34.32 9.97333 34.64 10.56 34.64C12.1333 34.64 12.92 33.52 12.92 31.28C12.92 29.28 12.56 27.9333 11.84 27.24C11.52 26.9467 10.24 26.3333 8 25.4C6.21333 24.6533 4.77333 23.3733 3.68 21.56C2.69333 19.9067 2.18667 18.1867 2.16 16.4C2.13333 13.52 2.85333 10.96 4.32 8.72C5.86667 6.32 7.78667 5.12 10.08 5.12C12.7467 5.12 14.6933 6.18667 15.92 8.32C16.72 9.65333 17.1733 11.3067 17.28 13.28C17.5733 14.2933 17.72 15.2133 17.72 16.04C17.72 16.5733 17.6533 17.0133 17.52 17.36C17.12 18.3467 16.3333 18.84 15.16 18.84C14.28 18.84 13.48 18.52 12.76 17.88C11.96 17.1867 11.4667 16.2133 11.28 14.96C11.2 14.5333 11.28 14.1067 11.52 13.68C11.7867 13.2533 11.92 13.0133 11.92 12.96C11.92 12.9067 11.8933 12.8533 11.84 12.8C11.8667 12.6667 11.88 12.5333 11.88 12.4C11.88 11.6 11.4133 11.2267 10.48 11.28C9.57333 11.3333 8.86667 11.9333 8.36 13.08C7.90667 14.0667 7.70667 15.2 7.76 16.48C7.84 18.7467 9.33333 20.56 12.24 21.92C14.5333 22.9867 16.12 24.04 17 25.08C18.2533 26.5733 18.88 28.6667 18.88 31.36ZM25.1774 14C25.2414 14.064 25.2734 14.1707 25.2734 14.32C25.2734 14.512 25.2094 14.8427 25.0814 15.312C24.932 15.888 24.836 16.2827 24.7934 16.496C24.7507 16.7093 24.772 17.1787 24.8574 17.904C24.8574 18.352 24.7187 18.6507 24.4414 18.8C24.1854 18.928 23.8547 18.992 23.4494 18.992C22.8734 18.992 22.2867 18.8747 21.6894 18.64C20.964 18.3413 20.6014 17.9467 20.6014 17.456C20.6014 17.3067 20.6654 17.104 20.7934 16.848C20.9214 16.5707 20.996 16.3467 21.0174 16.176C21.06 16.0053 21.06 15.5787 21.0174 14.896C20.9747 14.3627 21.0814 14 21.3374 13.808C21.6787 13.552 22.2867 13.424 23.1614 13.424C24.1214 13.424 24.7934 13.616 25.1774 14ZM25.5934 21.808C25.5934 22.1067 25.4227 22.576 25.0814 23.216C24.7614 23.8347 24.6014 24.3467 24.6014 24.752V34.16C24.6014 34.5867 24.7187 35.1947 24.9534 35.984C25.188 36.752 25.3054 37.2853 25.3054 37.584C25.3054 38.0107 25.1347 38.3307 24.7934 38.544C24.26 38.8853 23.684 39.056 23.0654 39.056C22.2547 39.056 21.6787 38.7787 21.3374 38.224C20.8894 37.5413 20.6654 35.504 20.6654 32.112C20.6654 31.3013 20.676 30.0427 20.6974 28.336C20.74 26.608 20.7614 25.3493 20.7614 24.56C20.7614 24.2613 20.7294 23.8773 20.6654 23.408C20.6014 22.9173 20.5694 22.5653 20.5694 22.352C20.5694 21.648 20.8254 21.04 21.3374 20.528C21.5507 20.3147 21.9454 20.208 22.5214 20.208C23.0974 20.208 23.6734 20.304 24.2494 20.496C24.8254 20.6667 25.188 20.8693 25.3374 21.104C25.508 21.3387 25.5934 21.5733 25.5934 21.808ZM49.7639 38C49.4865 38.7893 48.8572 39.184 47.8759 39.184C46.6385 39.184 45.7212 38.7573 45.1239 37.904C44.8039 37.4347 44.6439 35.824 44.6439 33.072C44.6439 32.6667 44.6439 32.1013 44.6439 31.376C44.6652 30.6293 44.6759 30.1067 44.6759 29.808C44.6759 28.3147 44.6012 27.5467 44.4519 27.504C44.1319 27.376 43.0439 30.3627 41.1879 36.464C41.1879 36.4853 41.1452 36.9973 41.0599 38C41.0172 38.6187 40.8039 39.0347 40.4199 39.248C40.1425 39.3973 39.8332 39.472 39.4919 39.472C38.8732 39.472 38.2759 39.2693 37.6999 38.864C37.1239 38.4587 36.7612 37.9787 36.6119 37.424C36.3985 36.6347 36.3025 35.0773 36.3239 32.752C36.3665 29.36 36.3879 27.728 36.3879 27.856C36.3665 26.96 36.3025 26.5013 36.1959 26.48C35.7052 27.2907 35.2785 28.0693 34.9159 28.816C34.0412 30.608 33.5399 32.1013 33.4119 33.296C33.3052 33.552 33.2945 34.0533 33.3799 34.8C33.4652 35.44 33.3692 35.8773 33.0919 36.112C32.8145 36.3467 32.4412 36.464 31.9719 36.464C31.4599 36.464 30.9372 36.3253 30.4039 36.048C29.8919 35.7493 29.5185 35.4187 29.2839 35.056C28.9425 34.5227 28.7505 32.9653 28.7079 30.384C28.7079 27.8667 28.7079 25.3493 28.7079 22.832C28.6865 22.6187 28.6012 22.32 28.4519 21.936C28.3025 21.552 28.2279 21.264 28.2279 21.072C28.2279 20.88 28.2812 20.6987 28.3879 20.528C28.6652 20.1013 29.3692 19.888 30.4999 19.888C31.8865 19.888 32.7185 20.2293 32.9959 20.912C33.0599 21.0613 33.0919 21.2107 33.0919 21.36C33.0919 21.552 32.9852 21.8293 32.7719 22.192C32.5799 22.5547 32.4839 22.8533 32.4839 23.088V26.736C33.1239 25.392 33.9665 23.6853 35.0119 21.616C35.1399 21.3387 35.2572 21.0613 35.3639 20.784C35.4919 20.5067 35.6732 20.2613 35.9079 20.048C36.1425 19.8347 36.5372 19.728 37.0919 19.728C37.9452 19.728 38.7985 19.92 39.6519 20.304C40.5265 20.688 40.9745 21.1467 40.9959 21.68C41.0172 22.2347 40.9319 22.6613 40.7399 22.96C40.5692 23.2373 40.4839 23.472 40.4839 23.664L40.4199 30.576C40.7612 29.808 41.3799 27.9947 42.2759 25.136C42.9799 22.96 43.5132 21.744 43.8759 21.488C44.3452 21.1467 45.0385 20.976 45.9559 20.976C47.6625 20.976 48.5479 21.4667 48.6119 22.448C48.5905 25.0507 48.5905 29.4027 48.6119 35.504C48.6119 35.7387 48.8252 36.0267 49.2519 36.368C49.6785 36.688 49.8919 37.0293 49.8919 37.392C49.8919 37.5627 49.8492 37.7653 49.7639 38ZM56.9899 14C57.0539 14.064 57.0859 14.1707 57.0859 14.32C57.0859 14.512 57.0219 14.8427 56.8939 15.312C56.7445 15.888 56.6485 16.2827 56.6059 16.496C56.5632 16.7093 56.5845 17.1787 56.6699 17.904C56.6699 18.352 56.5312 18.6507 56.2539 18.8C55.9979 18.928 55.6672 18.992 55.2619 18.992C54.6859 18.992 54.0992 18.8747 53.5019 18.64C52.7765 18.3413 52.4139 17.9467 52.4139 17.456C52.4139 17.3067 52.4779 17.104 52.6059 16.848C52.7339 16.5707 52.8085 16.3467 52.8299 16.176C52.8725 16.0053 52.8725 15.5787 52.8299 14.896C52.7872 14.3627 52.8939 14 53.1499 13.808C53.4912 13.552 54.0992 13.424 54.9739 13.424C55.9339 13.424 56.6059 13.616 56.9899 14ZM57.4059 21.808C57.4059 22.1067 57.2352 22.576 56.8939 23.216C56.5739 23.8347 56.4139 24.3467 56.4139 24.752V34.16C56.4139 34.5867 56.5312 35.1947 56.7659 35.984C57.0005 36.752 57.1179 37.2853 57.1179 37.584C57.1179 38.0107 56.9472 38.3307 56.6059 38.544C56.0725 38.8853 55.4965 39.056 54.8779 39.056C54.0672 39.056 53.4912 38.7787 53.1499 38.224C52.7019 37.5413 52.4779 35.504 52.4779 32.112C52.4779 31.3013 52.4885 30.0427 52.5099 28.336C52.5525 26.608 52.5739 25.3493 52.5739 24.56C52.5739 24.2613 52.5419 23.8773 52.4779 23.408C52.4139 22.9173 52.3819 22.5653 52.3819 22.352C52.3819 21.648 52.6379 21.04 53.1499 20.528C53.3632 20.3147 53.7579 20.208 54.3339 20.208C54.9099 20.208 55.4859 20.304 56.0619 20.496C56.6379 20.6667 57.0005 20.8693 57.1499 21.104C57.3205 21.3387 57.4059 21.5733 57.4059 21.808ZM65.8321 38.23C65.2188 39.3953 64.0841 39.978 62.4281 39.978C60.8948 39.978 59.8215 39.4567 59.2081 38.414C59.0241 38.1073 58.9321 37.77 58.9321 37.402C58.9321 37.0953 59.0395 36.5893 59.2541 35.884C59.4688 35.1787 59.5761 34.596 59.5761 34.136L59.3921 4.42C59.3921 2.79466 59.3921 1.96666 59.3921 1.936C59.4841 1.53733 59.9135 1.21533 60.6801 0.969997C61.4468 0.693999 62.2595 0.556 63.1181 0.556C64.3755 0.556 65.1728 0.785999 65.5101 1.246C65.8475 1.706 66.0161 2.18133 66.0161 2.672C66.0161 3.00933 65.8935 3.57667 65.6481 4.374C65.4028 5.14067 65.2801 5.76933 65.2801 6.26V33.86C65.2801 34.32 65.4028 34.9333 65.6481 35.7C65.9241 36.436 66.0621 36.9727 66.0621 37.31C66.0621 37.6473 65.9855 37.954 65.8321 38.23ZM77.5971 21.488C79.0264 22.9387 79.7411 25.3813 79.7411 28.816C79.7411 31.4827 79.2398 33.7547 78.2371 35.632C77.1064 37.744 75.5491 38.8 73.5651 38.8C71.6024 38.8 70.0878 37.8507 69.0211 35.952C68.0824 34.288 67.6131 32.176 67.6131 29.616C67.6131 27.3547 67.9758 25.328 68.7011 23.536C69.4691 21.616 70.4504 20.4853 71.6451 20.144C72.2638 19.9733 72.9038 19.888 73.5651 19.888C75.2078 19.888 76.5518 20.4213 77.5971 21.488ZM73.9491 23.024C73.2451 22.96 72.6371 23.6213 72.1251 25.008C71.6771 26.2667 71.4531 27.5893 71.4531 28.976C71.4531 30.9813 71.5384 32.4 71.7091 33.232C72.0078 34.7253 72.6264 35.5467 73.5651 35.696C74.1624 35.7813 74.7171 34.96 75.2291 33.232C75.7198 31.568 75.9651 29.7867 75.9651 27.888C75.9651 24.7733 75.2931 23.152 73.9491 23.024Z" fill="#094851"/>
</svg>
